<svg id="svg" version="1.1" xmlns="http://www.w3.org/2000/svg" xmlns:xlink="http://www.w3.org/1999/xlink" width="400" height="400" viewBox="0, 0, 400,400"><g id="svgg"><path id="path0" d="M190.000 56.275 C 146.969 59.503,109.922 74.653,81.613 100.596 C 75.914 105.819,74.010 107.729,70.244 112.000 C 8.518 182.004,26.096 280.828,109.120 330.567 C 151.058 355.692,207.725 361.838,256.400 346.540 C 295.823 334.150,330.999 306.976,349.266 274.800 C 358.867 257.887,363.842 243.642,367.077 223.800 C 367.989 218.203,368.124 194.423,367.276 188.600 C 359.563 135.623,324.931 92.641,271.800 70.103 C 247.425 59.764,215.479 54.363,190.000 56.275 M205.200 116.013 C 235.918 118.755,256.647 144.370,249.858 171.200 C 247.714 179.673,243.475 186.303,235.480 193.687 C 220.440 207.580,219.021 210.047,217.692 224.600 L 217.400 227.800 200.800 227.800 L 184.200 227.800 184.313 223.400 C 184.820 203.675,191.194 191.214,208.939 175.260 C 219.108 166.117,220.456 158.406,213.205 150.844 C 204.260 141.515,185.844 146.265,184.493 158.251 C 184.197 160.875,184.586 160.821,166.918 160.705 L 151.000 160.600 150.863 158.800 C 150.788 157.810,150.935 155.740,151.190 154.200 C 154.559 133.859,173.151 117.959,195.800 116.047 C 198.000 115.862,199.980 115.686,200.200 115.656 C 200.420 115.627,202.670 115.787,205.200 116.013 M205.793 266.079 C 217.344 268.992,221.346 282.471,213.003 290.362 C 201.754 301.000,182.058 292.591,184.407 278.154 C 185.893 269.024,195.642 263.520,205.793 266.079 " stroke="none" fill="#fbcb14" fill-rule="evenodd"></path><path id="path1" d="M0.000 200.000 L 0.000 400.000 200.000 400.000 L 400.000 400.000 400.000 200.000 L 400.000 0.000 200.000 0.000 L 0.000 0.000 0.000 200.000 M213.220 56.416 C 294.824 62.732,356.677 115.803,367.276 188.600 C 368.124 194.423,367.989 218.203,367.077 223.800 C 363.842 243.642,358.867 257.887,349.266 274.800 C 340.568 290.120,324.959 307.491,309.000 319.610 C 263.524 354.142,198.654 364.372,143.000 345.789 C 35.516 309.897,-0.945 192.736,70.244 112.000 C 74.010 107.729,75.914 105.819,81.613 100.596 C 109.922 74.653,146.969 59.503,190.000 56.275 C 194.328 55.950,208.295 56.035,213.220 56.416 M195.800 116.047 C 173.151 117.959,154.559 133.859,151.190 154.200 C 150.935 155.740,150.788 157.810,150.863 158.800 L 151.000 160.600 166.918 160.705 C 184.586 160.821,184.197 160.875,184.493 158.251 C 185.844 146.265,204.260 141.515,213.205 150.844 C 220.456 158.406,219.108 166.117,208.939 175.260 C 191.194 191.214,184.820 203.675,184.313 223.400 L 184.200 227.800 200.800 227.800 L 217.400 227.800 217.692 224.600 C 219.021 210.047,220.440 207.580,235.480 193.687 C 257.437 173.406,256.272 143.922,232.811 126.134 C 224.623 119.926,208.057 114.603,200.200 115.656 C 199.980 115.686,198.000 115.862,195.800 116.047 M197.832 265.643 C 190.952 266.646,185.445 271.778,184.407 278.154 C 182.058 292.591,201.754 301.000,213.003 290.362 C 223.938 280.020,213.695 263.331,197.832 265.643 " stroke="none" fill="#4c44e4" fill-rule="evenodd"></path></g></svg>